<svg xmlns="http://www.w3.org/2000/svg" xmlns:xlink="http://www.w3.org/1999/xlink" viewBox="0 0 296 60" width="296" height="60" shape-rendering="crispEdges"><style>@keyframes blink{0%,54%{opacity:1}55%,100%{opacity:0}}.blink{animation:blink 1.1s steps(1,end) infinite}</style><defs><g id="c48"><rect x="0" y="0" width="2" height="1"/><rect x="5" y="0" width="2" height="1"/><rect x="0" y="1" width="2" height="1"/><rect x="5" y="1" width="2" height="1"/><rect x="0" y="2" width="2" height="1"/><rect x="5" y="2" width="2" height="1"/><rect x="0" y="3" width="7" height="1"/><rect x="0" y="4" width="2" height="1"/><rect x="5" y="4" width="2" height="1"/><rect x="0" y="5" width="2" height="1"/><rect x="5" y="5" width="2" height="1"/><rect x="0" y="6" width="2" height="1"/><rect x="5" y="6" width="2" height="1"/></g><g id="c41"><rect x="2" y="0" width="3" height="1"/><rect x="1" y="1" width="2" height="1"/><rect x="4" y="1" width="2" height="1"/><rect x="0" y="2" width="2" height="1"/><rect x="5" y="2" width="2" height="1"/><rect x="0" y="3" width="2" height="1"/><rect x="5" y="3" width="2" height="1"/><rect x="0" y="4" width="7" height="1"/><rect x="0" y="5" width="2" height="1"/><rect x="5" y="5" width="2" height="1"/><rect x="0" y="6" width="2" height="1"/><rect x="5" y="6" width="2" height="1"/></g><g id="c59"><rect x="1" y="0" width="2" height="1"/><rect x="5" y="0" width="2" height="1"/><rect x="1" y="1" width="2" height="1"/><rect x="5" y="1" width="2" height="1"/><rect x="1" y="2" width="2" height="1"/><rect x="5" y="2" width="2" height="1"/><rect x="2" y="3" width="4" height="1"/><rect x="3" y="4" width="2" height="1"/><rect x="3" y="5" width="2" height="1"/><rect x="3" y="6" width="2" height="1"/></g><g id="c57"><rect x="0" y="0" width="2" height="1"/><rect x="3" y="0" width="1" height="1"/><rect x="5" y="0" width="2" height="1"/><rect x="0" y="1" width="2" height="1"/><rect x="3" y="1" width="1" height="1"/><rect x="5" y="1" width="2" height="1"/><rect x="0" y="2" width="2" height="1"/><rect x="3" y="2" width="1" height="1"/><rect x="5" y="2" width="2" height="1"/><rect x="0" y="3" width="2" height="1"/><rect x="3" y="3" width="1" height="1"/><rect x="5" y="3" width="2" height="1"/><rect x="0" y="4" width="7" height="1"/><rect x="0" y="5" width="3" height="1"/><rect x="4" y="5" width="3" height="1"/><rect x="1" y="6" width="1" height="1"/><rect x="5" y="6" width="1" height="1"/></g><g id="c49"><rect x="1" y="0" width="6" height="1"/><rect x="3" y="1" width="2" height="1"/><rect x="3" y="2" width="2" height="1"/><rect x="3" y="3" width="2" height="1"/><rect x="3" y="4" width="2" height="1"/><rect x="3" y="5" width="2" height="1"/><rect x="1" y="6" width="6" height="1"/></g><g id="c52"><rect x="0" y="0" width="6" height="1"/><rect x="0" y="1" width="2" height="1"/><rect x="5" y="1" width="2" height="1"/><rect x="0" y="2" width="2" height="1"/><rect x="5" y="2" width="2" height="1"/><rect x="0" y="3" width="2" height="1"/><rect x="4" y="3" width="3" height="1"/><rect x="0" y="4" width="5" height="1"/><rect x="0" y="5" width="2" height="1"/><rect x="3" y="5" width="3" height="1"/><rect x="0" y="6" width="2" height="1"/><rect x="4" y="6" width="3" height="1"/></g><g id="c45"><rect x="0" y="0" width="7" height="1"/><rect x="0" y="1" width="2" height="1"/><rect x="0" y="2" width="2" height="1"/><rect x="0" y="3" width="6" height="1"/><rect x="0" y="4" width="2" height="1"/><rect x="0" y="5" width="2" height="1"/><rect x="0" y="6" width="7" height="1"/></g><g id="c47"><rect x="2" y="0" width="5" height="1"/><rect x="1" y="1" width="2" height="1"/><rect x="0" y="2" width="2" height="1"/><rect x="0" y="3" width="2" height="1"/><rect x="4" y="3" width="3" height="1"/><rect x="0" y="4" width="2" height="1"/><rect x="5" y="4" width="2" height="1"/><rect x="1" y="5" width="2" height="1"/><rect x="5" y="5" width="2" height="1"/><rect x="2" y="6" width="5" height="1"/></g><g id="c2e"><rect x="2" y="5" width="2" height="1"/><rect x="2" y="6" width="2" height="1"/></g><g id="c43"><rect x="2" y="0" width="4" height="1"/><rect x="1" y="1" width="2" height="1"/><rect x="5" y="1" width="2" height="1"/><rect x="0" y="2" width="2" height="1"/><rect x="0" y="3" width="2" height="1"/><rect x="0" y="4" width="2" height="1"/><rect x="1" y="5" width="2" height="1"/><rect x="5" y="5" width="2" height="1"/><rect x="2" y="6" width="4" height="1"/></g><g id="c4f"><rect x="1" y="0" width="5" height="1"/><rect x="0" y="1" width="2" height="1"/><rect x="5" y="1" width="2" height="1"/><rect x="0" y="2" width="2" height="1"/><rect x="5" y="2" width="2" height="1"/><rect x="0" y="3" width="2" height="1"/><rect x="5" y="3" width="2" height="1"/><rect x="0" y="4" width="2" height="1"/><rect x="5" y="4" width="2" height="1"/><rect x="0" y="5" width="2" height="1"/><rect x="5" y="5" width="2" height="1"/><rect x="1" y="6" width="5" height="1"/></g><g id="c4d"><rect x="0" y="0" width="2" height="1"/><rect x="5" y="0" width="2" height="1"/><rect x="0" y="1" width="3" height="1"/><rect x="4" y="1" width="3" height="1"/><rect x="0" y="2" width="7" height="1"/><rect x="0" y="3" width="2" height="1"/><rect x="3" y="3" width="1" height="1"/><rect x="5" y="3" width="2" height="1"/><rect x="0" y="4" width="2" height="1"/><rect x="3" y="4" width="1" height="1"/><rect x="5" y="4" width="2" height="1"/><rect x="0" y="5" width="2" height="1"/><rect x="5" y="5" width="2" height="1"/><rect x="0" y="6" width="2" height="1"/><rect x="5" y="6" width="2" height="1"/></g><linearGradient id="csite_g" x1="0" y1="0" x2="0" y2="1"><stop offset="0" stop-color="#5880d8"/><stop offset="1" stop-color="#3050a0"/></linearGradient></defs><path d="M6 0h284v2h-284zM4 2h288v2h-288zM2 4h292v2h-292zM2 6h292v2h-292zM0 8h296v2h-296zM0 10h296v2h-296zM0 12h296v2h-296zM0 14h296v2h-296zM0 16h296v2h-296zM0 18h296v2h-296zM0 20h296v2h-296zM0 22h296v2h-296zM0 24h296v2h-296zM0 26h296v2h-296zM0 28h296v2h-296zM0 30h296v2h-296zM0 32h296v2h-296zM0 34h296v2h-296zM0 36h296v2h-296zM0 38h296v2h-296zM0 40h296v2h-296zM0 42h296v2h-296zM0 44h296v2h-296zM0 46h296v2h-296zM0 48h296v2h-296zM0 50h296v2h-296zM2 52h292v2h-292zM2 54h292v2h-292zM4 56h288v2h-288zM6 58h284v2h-284z" fill="#1c3c78"/><path d="M10 4h276v2h-276zM8 6h280v2h-280zM6 8h284v2h-284zM6 10h284v2h-284zM4 12h288v2h-288zM4 14h288v2h-288zM4 16h288v2h-288zM4 18h288v2h-288zM4 20h288v2h-288zM4 22h288v2h-288zM4 24h288v2h-288zM4 26h288v2h-288zM4 28h288v2h-288zM4 30h288v2h-288zM4 32h288v2h-288zM4 34h288v2h-288zM4 36h288v2h-288zM4 38h288v2h-288zM4 40h288v2h-288zM4 42h288v2h-288zM4 44h288v2h-288zM4 46h288v2h-288zM6 48h284v2h-284zM6 50h284v2h-284zM8 52h280v2h-280zM10 54h276v2h-276z" fill="url(#csite_g)"/><path d="M12 6h272v2h-272zM10 8h276v2h-276zM8 10h280v2h-280zM8 12h280v2h-280zM8 14h280v2h-280zM8 16h280v2h-280zM10 18h276v2h-276zM12 20h272v2h-272z" fill="rgba(255,255,255,0.22)"/><g transform="translate(24,22) scale(1.6)" fill="#ffffff" class="blink"><rect x="0" y="0" width="1" height="1"/><rect x="0" y="1" width="2" height="1"/><rect x="0" y="2" width="3" height="1"/><rect x="0" y="3" width="4" height="1"/><rect x="0" y="4" width="3" height="1"/><rect x="0" y="5" width="2" height="1"/><rect x="0" y="6" width="1" height="1"/></g><g transform="translate(50,24) scale(2)" fill="rgba(10,30,80,.55)"><use href="#c48" xlink:href="#c48" x="0"/><use href="#c41" xlink:href="#c41" x="8"/><use href="#c59" xlink:href="#c59" x="16"/><use href="#c57" xlink:href="#c57" x="24"/><use href="#c49" xlink:href="#c49" x="32"/><use href="#c52" xlink:href="#c52" x="40"/><use href="#c45" xlink:href="#c45" x="48"/><use href="#c41" xlink:href="#c41" x="56"/><use href="#c47" xlink:href="#c47" x="64"/><use href="#c2e" xlink:href="#c2e" x="72"/><use href="#c43" xlink:href="#c43" x="80"/><use href="#c4f" xlink:href="#c4f" x="88"/><use href="#c4d" xlink:href="#c4d" x="96"/></g><g transform="translate(48,22) scale(2)" fill="#ffffff"><use href="#c48" xlink:href="#c48" x="0"/><use href="#c41" xlink:href="#c41" x="8"/><use href="#c59" xlink:href="#c59" x="16"/><use href="#c57" xlink:href="#c57" x="24"/><use href="#c49" xlink:href="#c49" x="32"/><use href="#c52" xlink:href="#c52" x="40"/><use href="#c45" xlink:href="#c45" x="48"/><use href="#c41" xlink:href="#c41" x="56"/><use href="#c47" xlink:href="#c47" x="64"/><use href="#c2e" xlink:href="#c2e" x="72"/><use href="#c43" xlink:href="#c43" x="80"/><use href="#c4f" xlink:href="#c4f" x="88"/><use href="#c4d" xlink:href="#c4d" x="96"/></g></svg>