<svg xmlns="http://www.w3.org/2000/svg" xmlns:xlink="http://www.w3.org/1999/xlink" viewBox="0 0 272 64" width="272" height="64" shape-rendering="crispEdges"><style>@keyframes blink{0%,54%{opacity:1}55%,100%{opacity:0}}.blink{animation:blink 1.1s steps(1,end) infinite}</style><defs><g id="c45"><rect x="0" y="0" width="7" height="1"/><rect x="0" y="1" width="2" height="1"/><rect x="0" y="2" width="2" height="1"/><rect x="0" y="3" width="6" height="1"/><rect x="0" y="4" width="2" height="1"/><rect x="0" y="5" width="2" height="1"/><rect x="0" y="6" width="7" height="1"/></g><g id="c4d"><rect x="0" y="0" width="2" height="1"/><rect x="5" y="0" width="2" height="1"/><rect x="0" y="1" width="3" height="1"/><rect x="4" y="1" width="3" height="1"/><rect x="0" y="2" width="7" height="1"/><rect x="0" y="3" width="2" height="1"/><rect x="3" y="3" width="1" height="1"/><rect x="5" y="3" width="2" height="1"/><rect x="0" y="4" width="2" height="1"/><rect x="3" y="4" width="1" height="1"/><rect x="5" y="4" width="2" height="1"/><rect x="0" y="5" width="2" height="1"/><rect x="5" y="5" width="2" height="1"/><rect x="0" y="6" width="2" height="1"/><rect x="5" y="6" width="2" height="1"/></g><g id="c41"><rect x="2" y="0" width="3" height="1"/><rect x="1" y="1" width="2" height="1"/><rect x="4" y="1" width="2" height="1"/><rect x="0" y="2" width="2" height="1"/><rect x="5" y="2" width="2" height="1"/><rect x="0" y="3" width="2" height="1"/><rect x="5" y="3" width="2" height="1"/><rect x="0" y="4" width="7" height="1"/><rect x="0" y="5" width="2" height="1"/><rect x="5" y="5" width="2" height="1"/><rect x="0" y="6" width="2" height="1"/><rect x="5" y="6" width="2" height="1"/></g><g id="c49"><rect x="1" y="0" width="6" height="1"/><rect x="3" y="1" width="2" height="1"/><rect x="3" y="2" width="2" height="1"/><rect x="3" y="3" width="2" height="1"/><rect x="3" y="4" width="2" height="1"/><rect x="3" y="5" width="2" height="1"/><rect x="1" y="6" width="6" height="1"/></g><g id="c4c"><rect x="1" y="0" width="2" height="1"/><rect x="1" y="1" width="2" height="1"/><rect x="1" y="2" width="2" height="1"/><rect x="1" y="3" width="2" height="1"/><rect x="1" y="4" width="2" height="1"/><rect x="1" y="5" width="2" height="1"/><rect x="1" y="6" width="6" height="1"/></g></defs><rect x="0" y="0" width="272" height="64" fill="#9bbc0f"/><rect x="8" y="0" width="256" height="8" fill="#0f380f"/><rect x="8" y="56" width="256" height="8" fill="#0f380f"/><rect x="0" y="8" width="8" height="48" fill="#0f380f"/><rect x="264" y="8" width="8" height="48" fill="#0f380f"/><rect x="4" y="4" width="4" height="4" fill="#0f380f"/><rect x="264" y="4" width="4" height="4" fill="#0f380f"/><rect x="4" y="56" width="4" height="4" fill="#0f380f"/><rect x="264" y="56" width="4" height="4" fill="#0f380f"/><rect x="16" y="12" width="240" height="4" fill="#0f380f"/><rect x="16" y="48" width="240" height="4" fill="#0f380f"/><rect x="12" y="16" width="4" height="32" fill="#0f380f"/><rect x="256" y="16" width="4" height="32" fill="#0f380f"/><g transform="translate(32,20) scale(3)" fill="#0f380f" class="blink"><rect x="0" y="0" width="1" height="1"/><rect x="0" y="1" width="2" height="1"/><rect x="0" y="2" width="3" height="1"/><rect x="0" y="3" width="4" height="1"/><rect x="0" y="4" width="3" height="1"/><rect x="0" y="5" width="2" height="1"/><rect x="0" y="6" width="1" height="1"/></g><g transform="translate(64,16) scale(4)" fill="#0f380f"><use href="#c45" xlink:href="#c45" x="0"/><use href="#c4d" xlink:href="#c4d" x="8"/><use href="#c41" xlink:href="#c41" x="16"/><use href="#c49" xlink:href="#c49" x="24"/><use href="#c4c" xlink:href="#c4c" x="32"/></g></svg>