<svg xmlns="http://www.w3.org/2000/svg" xmlns:xlink="http://www.w3.org/1999/xlink" viewBox="0 0 640 416" width="640" height="416" shape-rendering="crispEdges"><style>.t8_7{transform-box:fill-box;transform-origin:100% 50%;animation:t8_7 10s linear infinite}@keyframes t8_7{0%{transform:scaleX(1)}4%{transform:scaleX(1);animation-timing-function:steps(18,end)}10.429%,100%{transform:scaleX(0)}}@keyframes fadein{0%,24%{opacity:0}26%,100%{opacity:1}}.fdin{animation:fadein 10s linear infinite}@keyframes blink{0%,54%{opacity:1}55%,100%{opacity:0}}.blink{animation:blink 1.1s steps(1,end) infinite}</style><defs><g id="c43"><rect x="2" y="0" width="4" height="1"/><rect x="1" y="1" width="2" height="1"/><rect x="5" y="1" width="2" height="1"/><rect x="0" y="2" width="2" height="1"/><rect x="0" y="3" width="2" height="1"/><rect x="0" y="4" width="2" height="1"/><rect x="1" y="5" width="2" height="1"/><rect x="5" y="5" width="2" height="1"/><rect x="2" y="6" width="4" height="1"/></g><g id="c4f"><rect x="1" y="0" width="5" height="1"/><rect x="0" y="1" width="2" height="1"/><rect x="5" y="1" width="2" height="1"/><rect x="0" y="2" width="2" height="1"/><rect x="5" y="2" width="2" height="1"/><rect x="0" y="3" width="2" height="1"/><rect x="5" y="3" width="2" height="1"/><rect x="0" y="4" width="2" height="1"/><rect x="5" y="4" width="2" height="1"/><rect x="0" y="5" width="2" height="1"/><rect x="5" y="5" width="2" height="1"/><rect x="1" y="6" width="5" height="1"/></g><g id="c4c"><rect x="1" y="0" width="2" height="1"/><rect x="1" y="1" width="2" height="1"/><rect x="1" y="2" width="2" height="1"/><rect x="1" y="3" width="2" height="1"/><rect x="1" y="4" width="2" height="1"/><rect x="1" y="5" width="2" height="1"/><rect x="1" y="6" width="6" height="1"/></g><g id="c45"><rect x="0" y="0" width="7" height="1"/><rect x="0" y="1" width="2" height="1"/><rect x="0" y="2" width="2" height="1"/><rect x="0" y="3" width="6" height="1"/><rect x="0" y="4" width="2" height="1"/><rect x="0" y="5" width="2" height="1"/><rect x="0" y="6" width="7" height="1"/></g><g id="c75"><rect x="0" y="2" width="2" height="1"/><rect x="5" y="2" width="2" height="1"/><rect x="0" y="3" width="2" height="1"/><rect x="5" y="3" width="2" height="1"/><rect x="0" y="4" width="2" height="1"/><rect x="5" y="4" width="2" height="1"/><rect x="0" y="5" width="2" height="1"/><rect x="5" y="5" width="2" height="1"/><rect x="1" y="6" width="6" height="1"/></g><g id="c73"><rect x="1" y="2" width="5" height="1"/><rect x="0" y="3" width="2" height="1"/><rect x="1" y="4" width="5" height="1"/><rect x="5" y="5" width="2" height="1"/><rect x="0" y="6" width="6" height="1"/></g><g id="c65"><rect x="1" y="2" width="5" height="1"/><rect x="0" y="3" width="2" height="1"/><rect x="5" y="3" width="2" height="1"/><rect x="0" y="4" width="7" height="1"/><rect x="0" y="5" width="2" height="1"/><rect x="1" y="6" width="5" height="1"/></g><g id="c64"><rect x="5" y="0" width="2" height="1"/><rect x="5" y="1" width="2" height="1"/><rect x="1" y="2" width="6" height="1"/><rect x="0" y="3" width="2" height="1"/><rect x="5" y="3" width="2" height="1"/><rect x="0" y="4" width="2" height="1"/><rect x="5" y="4" width="2" height="1"/><rect x="0" y="5" width="2" height="1"/><rect x="5" y="5" width="2" height="1"/><rect x="1" y="6" width="6" height="1"/></g><g id="c48"><rect x="0" y="0" width="2" height="1"/><rect x="5" y="0" width="2" height="1"/><rect x="0" y="1" width="2" height="1"/><rect x="5" y="1" width="2" height="1"/><rect x="0" y="2" width="2" height="1"/><rect x="5" y="2" width="2" height="1"/><rect x="0" y="3" width="7" height="1"/><rect x="0" y="4" width="2" height="1"/><rect x="5" y="4" width="2" height="1"/><rect x="0" y="5" width="2" height="1"/><rect x="5" y="5" width="2" height="1"/><rect x="0" y="6" width="2" height="1"/><rect x="5" y="6" width="2" height="1"/></g><g id="c41"><rect x="2" y="0" width="3" height="1"/><rect x="1" y="1" width="2" height="1"/><rect x="4" y="1" width="2" height="1"/><rect x="0" y="2" width="2" height="1"/><rect x="5" y="2" width="2" height="1"/><rect x="0" y="3" width="2" height="1"/><rect x="5" y="3" width="2" height="1"/><rect x="0" y="4" width="7" height="1"/><rect x="0" y="5" width="2" height="1"/><rect x="5" y="5" width="2" height="1"/><rect x="0" y="6" width="2" height="1"/><rect x="5" y="6" width="2" height="1"/></g><g id="c59"><rect x="1" y="0" width="2" height="1"/><rect x="5" y="0" width="2" height="1"/><rect x="1" y="1" width="2" height="1"/><rect x="5" y="1" width="2" height="1"/><rect x="1" y="2" width="2" height="1"/><rect x="5" y="2" width="2" height="1"/><rect x="2" y="3" width="4" height="1"/><rect x="3" y="4" width="2" height="1"/><rect x="3" y="5" width="2" height="1"/><rect x="3" y="6" width="2" height="1"/></g><g id="c57"><rect x="0" y="0" width="2" height="1"/><rect x="3" y="0" width="1" height="1"/><rect x="5" y="0" width="2" height="1"/><rect x="0" y="1" width="2" height="1"/><rect x="3" y="1" width="1" height="1"/><rect x="5" y="1" width="2" height="1"/><rect x="0" y="2" width="2" height="1"/><rect x="3" y="2" width="1" height="1"/><rect x="5" y="2" width="2" height="1"/><rect x="0" y="3" width="2" height="1"/><rect x="3" y="3" width="1" height="1"/><rect x="5" y="3" width="2" height="1"/><rect x="0" y="4" width="7" height="1"/><rect x="0" y="5" width="3" height="1"/><rect x="4" y="5" width="3" height="1"/><rect x="1" y="6" width="1" height="1"/><rect x="5" y="6" width="1" height="1"/></g><g id="c49"><rect x="1" y="0" width="6" height="1"/><rect x="3" y="1" width="2" height="1"/><rect x="3" y="2" width="2" height="1"/><rect x="3" y="3" width="2" height="1"/><rect x="3" y="4" width="2" height="1"/><rect x="3" y="5" width="2" height="1"/><rect x="1" y="6" width="6" height="1"/></g><g id="c52"><rect x="0" y="0" width="6" height="1"/><rect x="0" y="1" width="2" height="1"/><rect x="5" y="1" width="2" height="1"/><rect x="0" y="2" width="2" height="1"/><rect x="5" y="2" width="2" height="1"/><rect x="0" y="3" width="2" height="1"/><rect x="4" y="3" width="3" height="1"/><rect x="0" y="4" width="5" height="1"/><rect x="0" y="5" width="2" height="1"/><rect x="3" y="5" width="3" height="1"/><rect x="0" y="6" width="2" height="1"/><rect x="4" y="6" width="3" height="1"/></g><g id="c21"><rect x="2" y="0" width="3" height="1"/><rect x="2" y="1" width="3" height="1"/><rect x="2" y="2" width="3" height="1"/><rect x="2" y="3" width="2" height="1"/><rect x="2" y="4" width="2" height="1"/><rect x="2" y="6" width="2" height="1"/></g><g id="c74"><rect x="3" y="0" width="2" height="1"/><rect x="3" y="1" width="2" height="1"/><rect x="1" y="2" width="6" height="1"/><rect x="3" y="3" width="2" height="1"/><rect x="3" y="4" width="2" height="1"/><rect x="3" y="5" width="2" height="1"/><rect x="3" y="6" width="2" height="1"/></g><g id="c27"><rect x="2" y="0" width="2" height="1"/><rect x="2" y="1" width="2" height="1"/><rect x="2" y="2" width="2" height="1"/></g><g id="c70"><rect x="0" y="2" width="6" height="1"/><rect x="0" y="3" width="2" height="1"/><rect x="5" y="3" width="2" height="1"/><rect x="0" y="4" width="2" height="1"/><rect x="5" y="4" width="2" height="1"/><rect x="0" y="5" width="6" height="1"/><rect x="0" y="6" width="2" height="1"/><rect x="0" y="7" width="2" height="1"/></g><g id="c72"><rect x="1" y="2" width="2" height="1"/><rect x="4" y="2" width="3" height="1"/><rect x="1" y="3" width="3" height="1"/><rect x="1" y="4" width="2" height="1"/><rect x="1" y="5" width="2" height="1"/><rect x="1" y="6" width="2" height="1"/></g><g id="c66"><rect x="4" y="0" width="3" height="1"/><rect x="3" y="1" width="2" height="1"/><rect x="1" y="2" width="6" height="1"/><rect x="3" y="3" width="2" height="1"/><rect x="3" y="4" width="2" height="1"/><rect x="3" y="5" width="2" height="1"/><rect x="3" y="6" width="2" height="1"/></g><g id="c63"><rect x="1" y="2" width="6" height="1"/><rect x="0" y="3" width="2" height="1"/><rect x="0" y="4" width="2" height="1"/><rect x="0" y="5" width="2" height="1"/><rect x="1" y="6" width="6" height="1"/></g><g id="c69"><rect x="3" y="0" width="2" height="1"/><rect x="2" y="2" width="3" height="1"/><rect x="3" y="3" width="2" height="1"/><rect x="3" y="4" width="2" height="1"/><rect x="3" y="5" width="2" height="1"/><rect x="1" y="6" width="6" height="1"/></g><g id="c76"><rect x="1" y="2" width="2" height="1"/><rect x="5" y="2" width="2" height="1"/><rect x="1" y="3" width="2" height="1"/><rect x="5" y="3" width="2" height="1"/><rect x="1" y="4" width="2" height="1"/><rect x="5" y="4" width="2" height="1"/><rect x="2" y="5" width="4" height="1"/><rect x="3" y="6" width="2" height="1"/></g><g id="c47"><rect x="2" y="0" width="5" height="1"/><rect x="1" y="1" width="2" height="1"/><rect x="0" y="2" width="2" height="1"/><rect x="0" y="3" width="2" height="1"/><rect x="4" y="3" width="3" height="1"/><rect x="0" y="4" width="2" height="1"/><rect x="5" y="4" width="2" height="1"/><rect x="1" y="5" width="2" height="1"/><rect x="5" y="5" width="2" height="1"/><rect x="2" y="6" width="5" height="1"/></g><g id="c53"><rect x="1" y="0" width="5" height="1"/><rect x="0" y="1" width="2" height="1"/><rect x="5" y="1" width="2" height="1"/><rect x="0" y="2" width="2" height="1"/><rect x="1" y="3" width="5" height="1"/><rect x="5" y="4" width="2" height="1"/><rect x="0" y="5" width="2" height="1"/><rect x="5" y="5" width="2" height="1"/><rect x="1" y="6" width="5" height="1"/></g><g id="c54"><rect x="1" y="0" width="6" height="1"/><rect x="3" y="1" width="2" height="1"/><rect x="3" y="2" width="2" height="1"/><rect x="3" y="3" width="2" height="1"/><rect x="3" y="4" width="2" height="1"/><rect x="3" y="5" width="2" height="1"/><rect x="3" y="6" width="2" height="1"/></g><g id="c50"><rect x="0" y="0" width="6" height="1"/><rect x="0" y="1" width="2" height="1"/><rect x="5" y="1" width="2" height="1"/><rect x="0" y="2" width="2" height="1"/><rect x="5" y="2" width="2" height="1"/><rect x="0" y="3" width="2" height="1"/><rect x="5" y="3" width="2" height="1"/><rect x="0" y="4" width="6" height="1"/><rect x="0" y="5" width="2" height="1"/><rect x="0" y="6" width="2" height="1"/></g><g id="c31"><rect x="3" y="0" width="2" height="1"/><rect x="2" y="1" width="3" height="1"/><rect x="3" y="2" width="2" height="1"/><rect x="3" y="3" width="2" height="1"/><rect x="3" y="4" width="2" height="1"/><rect x="3" y="5" width="2" height="1"/><rect x="1" y="6" width="6" height="1"/></g><g id="c36"><rect x="2" y="0" width="4" height="1"/><rect x="1" y="1" width="2" height="1"/><rect x="0" y="2" width="2" height="1"/><rect x="0" y="3" width="6" height="1"/><rect x="0" y="4" width="2" height="1"/><rect x="5" y="4" width="2" height="1"/><rect x="0" y="5" width="2" height="1"/><rect x="5" y="5" width="2" height="1"/><rect x="1" y="6" width="5" height="1"/></g><g id="c2f"><rect x="6" y="0" width="1" height="1"/><rect x="5" y="1" width="1" height="1"/><rect x="4" y="2" width="1" height="1"/><rect x="3" y="3" width="1" height="1"/><rect x="2" y="4" width="1" height="1"/><rect x="1" y="5" width="1" height="1"/><rect x="0" y="6" width="1" height="1"/></g><g id="c6c"><rect x="2" y="0" width="3" height="1"/><rect x="3" y="1" width="2" height="1"/><rect x="3" y="2" width="2" height="1"/><rect x="3" y="3" width="2" height="1"/><rect x="3" y="4" width="2" height="1"/><rect x="3" y="5" width="2" height="1"/><rect x="1" y="6" width="6" height="1"/></g><g id="c6e"><rect x="0" y="2" width="6" height="1"/><rect x="0" y="3" width="2" height="1"/><rect x="5" y="3" width="2" height="1"/><rect x="0" y="4" width="2" height="1"/><rect x="5" y="4" width="2" height="1"/><rect x="0" y="5" width="2" height="1"/><rect x="5" y="5" width="2" height="1"/><rect x="0" y="6" width="2" height="1"/><rect x="5" y="6" width="2" height="1"/></g><g id="c79"><rect x="0" y="2" width="2" height="1"/><rect x="5" y="2" width="2" height="1"/><rect x="0" y="3" width="2" height="1"/><rect x="5" y="3" width="2" height="1"/><rect x="0" y="4" width="2" height="1"/><rect x="5" y="4" width="2" height="1"/><rect x="1" y="5" width="6" height="1"/><rect x="5" y="6" width="2" height="1"/><rect x="1" y="7" width="5" height="1"/></g><g id="c68"><rect x="0" y="0" width="2" height="1"/><rect x="0" y="1" width="2" height="1"/><rect x="0" y="2" width="6" height="1"/><rect x="0" y="3" width="2" height="1"/><rect x="5" y="3" width="2" height="1"/><rect x="0" y="4" width="2" height="1"/><rect x="5" y="4" width="2" height="1"/><rect x="0" y="5" width="2" height="1"/><rect x="5" y="5" width="2" height="1"/><rect x="0" y="6" width="2" height="1"/><rect x="5" y="6" width="2" height="1"/></g><g id="c6f"><rect x="1" y="2" width="5" height="1"/><rect x="0" y="3" width="2" height="1"/><rect x="5" y="3" width="2" height="1"/><rect x="0" y="4" width="2" height="1"/><rect x="5" y="4" width="2" height="1"/><rect x="0" y="5" width="2" height="1"/><rect x="5" y="5" width="2" height="1"/><rect x="1" y="6" width="5" height="1"/></g><g id="c61"><rect x="1" y="2" width="5" height="1"/><rect x="5" y="3" width="2" height="1"/><rect x="1" y="4" width="6" height="1"/><rect x="0" y="5" width="2" height="1"/><rect x="5" y="5" width="2" height="1"/><rect x="1" y="6" width="6" height="1"/></g><g id="c62"><rect x="0" y="0" width="2" height="1"/><rect x="0" y="1" width="2" height="1"/><rect x="0" y="2" width="6" height="1"/><rect x="0" y="3" width="2" height="1"/><rect x="5" y="3" width="2" height="1"/><rect x="0" y="4" width="2" height="1"/><rect x="5" y="4" width="2" height="1"/><rect x="0" y="5" width="2" height="1"/><rect x="5" y="5" width="2" height="1"/><rect x="1" y="6" width="5" height="1"/></g><g id="c67"><rect x="1" y="2" width="6" height="1"/><rect x="0" y="3" width="2" height="1"/><rect x="5" y="3" width="2" height="1"/><rect x="0" y="4" width="2" height="1"/><rect x="5" y="4" width="2" height="1"/><rect x="1" y="5" width="6" height="1"/><rect x="5" y="6" width="2" height="1"/><rect x="1" y="7" width="5" height="1"/></g><g id="c2c"><rect x="2" y="5" width="2" height="1"/><rect x="2" y="6" width="2" height="1"/><rect x="1" y="7" width="2" height="1"/></g><g id="c6b"><rect x="0" y="0" width="2" height="1"/><rect x="0" y="1" width="2" height="1"/><rect x="0" y="2" width="2" height="1"/><rect x="5" y="2" width="2" height="1"/><rect x="0" y="3" width="2" height="1"/><rect x="4" y="3" width="2" height="1"/><rect x="0" y="4" width="5" height="1"/><rect x="0" y="5" width="2" height="1"/><rect x="4" y="5" width="2" height="1"/><rect x="0" y="6" width="2" height="1"/><rect x="5" y="6" width="2" height="1"/></g><g id="c2b"><rect x="3" y="1" width="2" height="1"/><rect x="3" y="2" width="2" height="1"/><rect x="1" y="3" width="6" height="1"/><rect x="3" y="4" width="2" height="1"/><rect x="3" y="5" width="2" height="1"/></g><g id="c4e"><rect x="0" y="0" width="2" height="1"/><rect x="5" y="0" width="2" height="1"/><rect x="0" y="1" width="3" height="1"/><rect x="5" y="1" width="2" height="1"/><rect x="0" y="2" width="4" height="1"/><rect x="5" y="2" width="2" height="1"/><rect x="0" y="3" width="2" height="1"/><rect x="3" y="3" width="4" height="1"/><rect x="0" y="4" width="2" height="1"/><rect x="4" y="4" width="3" height="1"/><rect x="0" y="5" width="2" height="1"/><rect x="5" y="5" width="2" height="1"/><rect x="0" y="6" width="2" height="1"/><rect x="5" y="6" width="2" height="1"/></g><g id="c6d"><rect x="0" y="2" width="6" height="1"/><rect x="0" y="3" width="1" height="1"/><rect x="2" y="3" width="2" height="1"/><rect x="5" y="3" width="2" height="1"/><rect x="0" y="4" width="1" height="1"/><rect x="2" y="4" width="2" height="1"/><rect x="5" y="4" width="2" height="1"/><rect x="0" y="5" width="1" height="1"/><rect x="2" y="5" width="2" height="1"/><rect x="5" y="5" width="2" height="1"/><rect x="0" y="6" width="1" height="1"/><rect x="2" y="6" width="2" height="1"/><rect x="5" y="6" width="2" height="1"/></g><g id="c42"><rect x="0" y="0" width="6" height="1"/><rect x="0" y="1" width="2" height="1"/><rect x="5" y="1" width="2" height="1"/><rect x="0" y="2" width="2" height="1"/><rect x="5" y="2" width="2" height="1"/><rect x="0" y="3" width="6" height="1"/><rect x="0" y="4" width="2" height="1"/><rect x="5" y="4" width="2" height="1"/><rect x="0" y="5" width="2" height="1"/><rect x="5" y="5" width="2" height="1"/><rect x="0" y="6" width="6" height="1"/></g><g id="c77"><rect x="0" y="2" width="2" height="1"/><rect x="3" y="2" width="1" height="1"/><rect x="5" y="2" width="2" height="1"/><rect x="0" y="3" width="2" height="1"/><rect x="3" y="3" width="1" height="1"/><rect x="5" y="3" width="2" height="1"/><rect x="0" y="4" width="2" height="1"/><rect x="3" y="4" width="1" height="1"/><rect x="5" y="4" width="2" height="1"/><rect x="0" y="5" width="2" height="1"/><rect x="3" y="5" width="1" height="1"/><rect x="5" y="5" width="2" height="1"/><rect x="1" y="6" width="2" height="1"/><rect x="4" y="6" width="2" height="1"/></g><g id="c78"><rect x="0" y="2" width="2" height="1"/><rect x="5" y="2" width="2" height="1"/><rect x="1" y="3" width="2" height="1"/><rect x="4" y="3" width="2" height="1"/><rect x="2" y="4" width="3" height="1"/><rect x="1" y="5" width="2" height="1"/><rect x="4" y="5" width="2" height="1"/><rect x="0" y="6" width="2" height="1"/><rect x="5" y="6" width="2" height="1"/></g><g id="c35"><rect x="0" y="0" width="6" height="1"/><rect x="0" y="1" width="2" height="1"/><rect x="0" y="2" width="6" height="1"/><rect x="5" y="3" width="2" height="1"/><rect x="5" y="4" width="2" height="1"/><rect x="0" y="5" width="2" height="1"/><rect x="5" y="5" width="2" height="1"/><rect x="1" y="6" width="5" height="1"/></g><g id="c30"><rect x="2" y="0" width="3" height="1"/><rect x="1" y="1" width="1" height="1"/><rect x="4" y="1" width="2" height="1"/><rect x="0" y="2" width="2" height="1"/><rect x="5" y="2" width="2" height="1"/><rect x="0" y="3" width="2" height="1"/><rect x="5" y="3" width="2" height="1"/><rect x="0" y="4" width="2" height="1"/><rect x="5" y="4" width="2" height="1"/><rect x="1" y="5" width="2" height="1"/><rect x="5" y="5" width="1" height="1"/><rect x="2" y="6" width="3" height="1"/></g><g id="c2e"><rect x="2" y="5" width="2" height="1"/><rect x="2" y="6" width="2" height="1"/></g></defs><rect x="0" y="0" width="640" height="416" fill="#9bbc0f"/><rect x="8" y="0" width="624" height="8" fill="#0f380f"/><rect x="8" y="408" width="624" height="8" fill="#0f380f"/><rect x="0" y="8" width="8" height="400" fill="#0f380f"/><rect x="632" y="8" width="8" height="400" fill="#0f380f"/><rect x="4" y="4" width="4" height="4" fill="#0f380f"/><rect x="632" y="4" width="4" height="4" fill="#0f380f"/><rect x="4" y="408" width="4" height="4" fill="#0f380f"/><rect x="632" y="408" width="4" height="4" fill="#0f380f"/><rect x="16" y="12" width="608" height="4" fill="#0f380f"/><rect x="16" y="400" width="608" height="4" fill="#0f380f"/><rect x="12" y="16" width="4" height="384" fill="#0f380f"/><rect x="624" y="16" width="4" height="384" fill="#0f380f"/><g transform="translate(32,28) scale(3)" fill="#0f380f"><use href="#c43" xlink:href="#c43" x="0"/><use href="#c4f" xlink:href="#c4f" x="8"/><use href="#c4c" xlink:href="#c4c" x="16"/><use href="#c45" xlink:href="#c45" x="24"/><use href="#c75" xlink:href="#c75" x="40"/><use href="#c73" xlink:href="#c73" x="48"/><use href="#c65" xlink:href="#c65" x="56"/><use href="#c64" xlink:href="#c64" x="64"/><use href="#c48" xlink:href="#c48" x="80"/><use href="#c41" xlink:href="#c41" x="88"/><use href="#c59" xlink:href="#c59" x="96"/><use href="#c57" xlink:href="#c57" x="104"/><use href="#c49" xlink:href="#c49" x="112"/><use href="#c52" xlink:href="#c52" x="120"/><use href="#c45" xlink:href="#c45" x="128"/><use href="#c21" xlink:href="#c21" x="136"/></g><rect x="32" y="26" width="436" height="30" fill="#9bbc0f" class="t8_7"/><g class="fdin"><g transform="translate(32,68) scale(2.5)" fill="#306230"><use href="#c49" xlink:href="#c49" x="0"/><use href="#c74" xlink:href="#c74" x="8"/><use href="#c27" xlink:href="#c27" x="16"/><use href="#c73" xlink:href="#c73" x="24"/><use href="#c73" xlink:href="#c73" x="40"/><use href="#c75" xlink:href="#c75" x="48"/><use href="#c70" xlink:href="#c70" x="56"/><use href="#c65" xlink:href="#c65" x="64"/><use href="#c72" xlink:href="#c72" x="72"/><use href="#c65" xlink:href="#c65" x="88"/><use href="#c66" xlink:href="#c66" x="96"/><use href="#c66" xlink:href="#c66" x="104"/><use href="#c65" xlink:href="#c65" x="112"/><use href="#c63" xlink:href="#c63" x="120"/><use href="#c74" xlink:href="#c74" x="128"/><use href="#c69" xlink:href="#c69" x="136"/><use href="#c76" xlink:href="#c76" x="144"/><use href="#c65" xlink:href="#c65" x="152"/><use href="#c21" xlink:href="#c21" x="160"/></g></g><rect x="584" y="20" width="4" height="4" fill="#0f380f"/><rect x="572" y="24" width="4" height="4" fill="#0f380f"/><rect x="584" y="24" width="4" height="4" fill="#0f380f"/><rect x="596" y="24" width="4" height="4" fill="#0f380f"/><rect x="572" y="28" width="4" height="4" fill="#0f380f"/><rect x="580" y="28" width="12" height="4" fill="#0f380f"/><rect x="596" y="28" width="4" height="4" fill="#0f380f"/><rect x="576" y="32" width="20" height="4" fill="#0f380f"/><rect x="580" y="36" width="12" height="4" fill="#0f380f"/><rect x="572" y="40" width="4" height="4" fill="#0f380f"/><rect x="584" y="40" width="4" height="4" fill="#0f380f"/><rect x="596" y="40" width="4" height="4" fill="#0f380f"/><rect x="572" y="44" width="4" height="4" fill="#0f380f"/><rect x="580" y="44" width="12" height="4" fill="#0f380f"/><rect x="596" y="44" width="4" height="4" fill="#0f380f"/><rect x="576" y="48" width="20" height="4" fill="#0f380f"/><rect x="580" y="52" width="12" height="4" fill="#0f380f"/><rect x="584" y="56" width="4" height="4" fill="#0f380f"/><rect x="584" y="60" width="4" height="4" fill="#0f380f"/><rect x="584" y="64" width="4" height="4" fill="#0f380f"/><rect x="24" y="108" width="592" height="4" fill="#306230"/><rect x="32" y="124" width="132" height="44" fill="#0f380f"/><rect x="36" y="128" width="124" height="36" fill="#9bbc0f"/><g transform="translate(48,136) scale(2.5)" fill="#0f380f"><use href="#c47" xlink:href="#c47" x="0"/><use href="#c52" xlink:href="#c52" x="8"/><use href="#c41" xlink:href="#c41" x="16"/><use href="#c53" xlink:href="#c53" x="24"/><use href="#c53" xlink:href="#c53" x="32"/></g><rect x="180" y="124" width="192" height="44" fill="#0f380f"/><rect x="184" y="128" width="184" height="36" fill="#9bbc0f"/><g transform="translate(196,136) scale(2.5)" fill="#0f380f"><use href="#c45" xlink:href="#c45" x="0"/><use href="#c4c" xlink:href="#c4c" x="8"/><use href="#c45" xlink:href="#c45" x="16"/><use href="#c43" xlink:href="#c43" x="24"/><use href="#c54" xlink:href="#c54" x="32"/><use href="#c52" xlink:href="#c52" x="40"/><use href="#c49" xlink:href="#c49" x="48"/><use href="#c43" xlink:href="#c43" x="56"/></g><g transform="translate(448,136) scale(2.5)" fill="#0f380f"><use href="#c50" xlink:href="#c50" x="0"/><use href="#c50" xlink:href="#c50" x="8"/><use href="#c31" xlink:href="#c31" x="24"/><use href="#c36" xlink:href="#c36" x="32"/><use href="#c2f" xlink:href="#c2f" x="40"/><use href="#c31" xlink:href="#c31" x="48"/><use href="#c36" xlink:href="#c36" x="56"/></g><g transform="translate(40,192) scale(2)" fill="#306230"><use href="#c70" xlink:href="#c70" x="0"/><use href="#c69" xlink:href="#c69" x="8"/><use href="#c70" xlink:href="#c70" x="16"/><use href="#c65" xlink:href="#c65" x="24"/><use href="#c6c" xlink:href="#c6c" x="32"/><use href="#c69" xlink:href="#c69" x="40"/><use href="#c6e" xlink:href="#c6e" x="48"/><use href="#c65" xlink:href="#c65" x="56"/></g><g transform="translate(176,192) scale(2)" fill="#0f380f"><use href="#c50" xlink:href="#c50" x="0"/><use href="#c79" xlink:href="#c79" x="8"/><use href="#c74" xlink:href="#c74" x="16"/><use href="#c68" xlink:href="#c68" x="24"/><use href="#c6f" xlink:href="#c6f" x="32"/><use href="#c6e" xlink:href="#c6e" x="40"/><use href="#c73" xlink:href="#c73" x="56"/><use href="#c63" xlink:href="#c63" x="64"/><use href="#c72" xlink:href="#c72" x="72"/><use href="#c61" xlink:href="#c61" x="80"/><use href="#c70" xlink:href="#c70" x="88"/><use href="#c65" xlink:href="#c65" x="96"/><use href="#c2f" xlink:href="#c2f" x="104"/><use href="#c70" xlink:href="#c70" x="112"/><use href="#c75" xlink:href="#c75" x="120"/><use href="#c62" xlink:href="#c62" x="128"/><use href="#c6c" xlink:href="#c6c" x="136"/><use href="#c69" xlink:href="#c69" x="144"/><use href="#c73" xlink:href="#c73" x="152"/><use href="#c68" xlink:href="#c68" x="160"/><use href="#c63" xlink:href="#c63" x="176"/><use href="#c72" xlink:href="#c72" x="184"/><use href="#c6f" xlink:href="#c6f" x="192"/><use href="#c6e" xlink:href="#c6e" x="200"/></g><g transform="translate(40,220) scale(2)" fill="#306230"><use href="#c64" xlink:href="#c64" x="0"/><use href="#c61" xlink:href="#c61" x="8"/><use href="#c74" xlink:href="#c74" x="16"/><use href="#c61" xlink:href="#c61" x="24"/></g><g transform="translate(176,220) scale(2)" fill="#0f380f"><use href="#c53" xlink:href="#c53" x="0"/><use href="#c75" xlink:href="#c75" x="8"/><use href="#c70" xlink:href="#c70" x="16"/><use href="#c61" xlink:href="#c61" x="24"/><use href="#c62" xlink:href="#c62" x="32"/><use href="#c61" xlink:href="#c61" x="40"/><use href="#c73" xlink:href="#c73" x="48"/><use href="#c65" xlink:href="#c65" x="56"/><use href="#c50" xlink:href="#c50" x="72"/><use href="#c6f" xlink:href="#c6f" x="80"/><use href="#c73" xlink:href="#c73" x="88"/><use href="#c74" xlink:href="#c74" x="96"/><use href="#c67" xlink:href="#c67" x="104"/><use href="#c72" xlink:href="#c72" x="112"/><use href="#c65" xlink:href="#c65" x="120"/><use href="#c73" xlink:href="#c73" x="128"/><use href="#c2c" xlink:href="#c2c" x="136"/><use href="#c52" xlink:href="#c52" x="152"/><use href="#c4c" xlink:href="#c4c" x="160"/><use href="#c53" xlink:href="#c53" x="168"/><use href="#c6c" xlink:href="#c6c" x="184"/><use href="#c6f" xlink:href="#c6f" x="192"/><use href="#c63" xlink:href="#c63" x="200"/><use href="#c6b" xlink:href="#c6b" x="208"/></g><g transform="translate(40,248) scale(2)" fill="#306230"><use href="#c66" xlink:href="#c66" x="0"/><use href="#c72" xlink:href="#c72" x="8"/><use href="#c6f" xlink:href="#c6f" x="16"/><use href="#c6e" xlink:href="#c6e" x="24"/><use href="#c74" xlink:href="#c74" x="32"/><use href="#c65" xlink:href="#c65" x="40"/><use href="#c6e" xlink:href="#c6e" x="48"/><use href="#c64" xlink:href="#c64" x="56"/></g><g transform="translate(176,248) scale(2)" fill="#0f380f"><use href="#c73" xlink:href="#c73" x="0"/><use href="#c74" xlink:href="#c74" x="8"/><use href="#c61" xlink:href="#c61" x="16"/><use href="#c74" xlink:href="#c74" x="24"/><use href="#c69" xlink:href="#c69" x="32"/><use href="#c63" xlink:href="#c63" x="40"/><use href="#c73" xlink:href="#c73" x="56"/><use href="#c69" xlink:href="#c69" x="64"/><use href="#c74" xlink:href="#c74" x="72"/><use href="#c65" xlink:href="#c65" x="80"/><use href="#c2b" xlink:href="#c2b" x="96"/><use href="#c4e" xlink:href="#c4e" x="112"/><use href="#c65" xlink:href="#c65" x="120"/><use href="#c74" xlink:href="#c74" x="128"/><use href="#c6c" xlink:href="#c6c" x="136"/><use href="#c69" xlink:href="#c69" x="144"/><use href="#c66" xlink:href="#c66" x="152"/><use href="#c79" xlink:href="#c79" x="160"/><use href="#c66" xlink:href="#c66" x="176"/><use href="#c6e" xlink:href="#c6e" x="184"/><use href="#c73" xlink:href="#c73" x="192"/></g><g transform="translate(40,276) scale(2)" fill="#306230"><use href="#c65" xlink:href="#c65" x="0"/><use href="#c6d" xlink:href="#c6d" x="8"/><use href="#c61" xlink:href="#c61" x="16"/><use href="#c69" xlink:href="#c69" x="24"/><use href="#c6c" xlink:href="#c6c" x="32"/></g><g transform="translate(176,276) scale(2)" fill="#0f380f"><use href="#c42" xlink:href="#c42" x="0"/><use href="#c65" xlink:href="#c65" x="8"/><use href="#c65" xlink:href="#c65" x="16"/><use href="#c68" xlink:href="#c68" x="24"/><use href="#c69" xlink:href="#c69" x="32"/><use href="#c69" xlink:href="#c69" x="40"/><use href="#c76" xlink:href="#c76" x="48"/><use href="#c6e" xlink:href="#c6e" x="64"/><use href="#c65" xlink:href="#c65" x="72"/><use href="#c77" xlink:href="#c77" x="80"/><use href="#c73" xlink:href="#c73" x="88"/><use href="#c6c" xlink:href="#c6c" x="96"/><use href="#c65" xlink:href="#c65" x="104"/><use href="#c74" xlink:href="#c74" x="112"/><use href="#c74" xlink:href="#c74" x="120"/><use href="#c65" xlink:href="#c65" x="128"/><use href="#c72" xlink:href="#c72" x="136"/></g><g transform="translate(40,304) scale(2)" fill="#306230"><use href="#c74" xlink:href="#c74" x="0"/><use href="#c65" xlink:href="#c65" x="8"/><use href="#c73" xlink:href="#c73" x="16"/><use href="#c74" xlink:href="#c74" x="24"/><use href="#c73" xlink:href="#c73" x="32"/></g><g transform="translate(176,304) scale(2)" fill="#0f380f"><use href="#c70" xlink:href="#c70" x="0"/><use href="#c6f" xlink:href="#c6f" x="8"/><use href="#c6c" xlink:href="#c6c" x="16"/><use href="#c69" xlink:href="#c69" x="24"/><use href="#c63" xlink:href="#c63" x="32"/><use href="#c79" xlink:href="#c79" x="40"/><use href="#c74" xlink:href="#c74" x="56"/><use href="#c65" xlink:href="#c65" x="64"/><use href="#c73" xlink:href="#c73" x="72"/><use href="#c74" xlink:href="#c74" x="80"/><use href="#c73" xlink:href="#c73" x="88"/><use href="#c2c" xlink:href="#c2c" x="96"/><use href="#c31" xlink:href="#c31" x="112"/><use href="#c36" xlink:href="#c36" x="120"/><use href="#c78" xlink:href="#c78" x="128"/><use href="#c35" xlink:href="#c35" x="136"/><use href="#c76" xlink:href="#c76" x="152"/><use href="#c65" xlink:href="#c65" x="160"/><use href="#c72" xlink:href="#c72" x="168"/><use href="#c64" xlink:href="#c64" x="176"/><use href="#c69" xlink:href="#c69" x="184"/><use href="#c63" xlink:href="#c63" x="192"/><use href="#c74" xlink:href="#c74" x="200"/><use href="#c73" xlink:href="#c73" x="208"/></g><g transform="translate(40,332) scale(2)" fill="#306230"><use href="#c63" xlink:href="#c63" x="0"/><use href="#c69" xlink:href="#c69" x="8"/></g><g transform="translate(176,332) scale(2)" fill="#0f380f"><use href="#c72" xlink:href="#c72" x="0"/><use href="#c75" xlink:href="#c75" x="8"/><use href="#c66" xlink:href="#c66" x="16"/><use href="#c66" xlink:href="#c66" x="24"/><use href="#c2b" xlink:href="#c2b" x="40"/><use href="#c65" xlink:href="#c65" x="56"/><use href="#c73" xlink:href="#c73" x="64"/><use href="#c6c" xlink:href="#c6c" x="72"/><use href="#c69" xlink:href="#c69" x="80"/><use href="#c6e" xlink:href="#c6e" x="88"/><use href="#c74" xlink:href="#c74" x="96"/><use href="#c2c" xlink:href="#c2c" x="104"/><use href="#c30" xlink:href="#c30" x="120"/><use href="#c66" xlink:href="#c66" x="136"/><use href="#c69" xlink:href="#c69" x="144"/><use href="#c6e" xlink:href="#c6e" x="152"/><use href="#c64" xlink:href="#c64" x="160"/><use href="#c69" xlink:href="#c69" x="168"/><use href="#c6e" xlink:href="#c6e" x="176"/><use href="#c67" xlink:href="#c67" x="184"/><use href="#c73" xlink:href="#c73" x="192"/></g><rect x="24" y="364" width="592" height="4" fill="#306230"/><g transform="translate(32,384) scale(2.5)" fill="#0f380f" class="blink"><rect x="0" y="0" width="1" height="1"/><rect x="0" y="1" width="2" height="1"/><rect x="0" y="2" width="3" height="1"/><rect x="0" y="3" width="4" height="1"/><rect x="0" y="4" width="3" height="1"/><rect x="0" y="5" width="2" height="1"/><rect x="0" y="6" width="1" height="1"/></g><g transform="translate(60,380) scale(2.5)" fill="#0f380f"><use href="#c68" xlink:href="#c68" x="0"/><use href="#c61" xlink:href="#c61" x="8"/><use href="#c79" xlink:href="#c79" x="16"/><use href="#c77" xlink:href="#c77" x="24"/><use href="#c69" xlink:href="#c69" x="32"/><use href="#c72" xlink:href="#c72" x="40"/><use href="#c65" xlink:href="#c65" x="48"/><use href="#c61" xlink:href="#c61" x="56"/><use href="#c67" xlink:href="#c67" x="64"/><use href="#c2e" xlink:href="#c2e" x="72"/><use href="#c63" xlink:href="#c63" x="80"/><use href="#c6f" xlink:href="#c6f" x="88"/><use href="#c6d" xlink:href="#c6d" x="96"/></g></svg>