<svg xmlns="http://www.w3.org/2000/svg" xmlns:xlink="http://www.w3.org/1999/xlink" viewBox="0 0 304 72" width="304" height="72" shape-rendering="crispEdges"><style>@keyframes blink{0%,54%{opacity:1}55%,100%{opacity:0}}.blink{animation:blink 1.1s steps(1,end) infinite}</style><defs><g id="c52"><rect x="0" y="0" width="6" height="1"/><rect x="0" y="1" width="2" height="1"/><rect x="5" y="1" width="2" height="1"/><rect x="0" y="2" width="2" height="1"/><rect x="5" y="2" width="2" height="1"/><rect x="0" y="3" width="2" height="1"/><rect x="4" y="3" width="3" height="1"/><rect x="0" y="4" width="5" height="1"/><rect x="0" y="5" width="2" height="1"/><rect x="3" y="5" width="3" height="1"/><rect x="0" y="6" width="2" height="1"/><rect x="4" y="6" width="3" height="1"/></g><g id="c55"><rect x="0" y="0" width="2" height="1"/><rect x="5" y="0" width="2" height="1"/><rect x="0" y="1" width="2" height="1"/><rect x="5" y="1" width="2" height="1"/><rect x="0" y="2" width="2" height="1"/><rect x="5" y="2" width="2" height="1"/><rect x="0" y="3" width="2" height="1"/><rect x="5" y="3" width="2" height="1"/><rect x="0" y="4" width="2" height="1"/><rect x="5" y="4" width="2" height="1"/><rect x="0" y="5" width="2" height="1"/><rect x="5" y="5" width="2" height="1"/><rect x="1" y="6" width="5" height="1"/></g><g id="c4e"><rect x="0" y="0" width="2" height="1"/><rect x="5" y="0" width="2" height="1"/><rect x="0" y="1" width="3" height="1"/><rect x="5" y="1" width="2" height="1"/><rect x="0" y="2" width="4" height="1"/><rect x="5" y="2" width="2" height="1"/><rect x="0" y="3" width="2" height="1"/><rect x="3" y="3" width="4" height="1"/><rect x="0" y="4" width="2" height="1"/><rect x="4" y="4" width="3" height="1"/><rect x="0" y="5" width="2" height="1"/><rect x="5" y="5" width="2" height="1"/><rect x="0" y="6" width="2" height="1"/><rect x="5" y="6" width="2" height="1"/></g></defs><rect x="0" y="0" width="304" height="72" fill="#9bbc0f"/><rect x="8" y="0" width="288" height="8" fill="#0f380f"/><rect x="8" y="64" width="288" height="8" fill="#0f380f"/><rect x="0" y="8" width="8" height="56" fill="#0f380f"/><rect x="296" y="8" width="8" height="56" fill="#0f380f"/><rect x="4" y="4" width="4" height="4" fill="#0f380f"/><rect x="296" y="4" width="4" height="4" fill="#0f380f"/><rect x="4" y="64" width="4" height="4" fill="#0f380f"/><rect x="296" y="64" width="4" height="4" fill="#0f380f"/><rect x="16" y="12" width="272" height="4" fill="#0f380f"/><rect x="16" y="56" width="272" height="4" fill="#0f380f"/><rect x="12" y="16" width="4" height="40" fill="#0f380f"/><rect x="288" y="16" width="4" height="40" fill="#0f380f"/><g transform="translate(84,24) scale(4)" fill="#0f380f" class="blink"><rect x="0" y="0" width="1" height="1"/><rect x="0" y="1" width="2" height="1"/><rect x="0" y="2" width="3" height="1"/><rect x="0" y="3" width="4" height="1"/><rect x="0" y="4" width="3" height="1"/><rect x="0" y="5" width="2" height="1"/><rect x="0" y="6" width="1" height="1"/></g><g transform="translate(124,20) scale(4)" fill="#0f380f"><use href="#c52" xlink:href="#c52" x="0"/><use href="#c55" xlink:href="#c55" x="8"/><use href="#c4e" xlink:href="#c4e" x="16"/></g></svg>