<svg xmlns="http://www.w3.org/2000/svg" xmlns:xlink="http://www.w3.org/1999/xlink" viewBox="0 0 640 160" width="640" height="160" shape-rendering="crispEdges"><style>@keyframes blink{0%,54%{opacity:1}55%,100%{opacity:0}}.blink{animation:blink 1.1s steps(1,end) infinite}</style><defs><g id="c57"><rect x="0" y="0" width="2" height="1"/><rect x="3" y="0" width="1" height="1"/><rect x="5" y="0" width="2" height="1"/><rect x="0" y="1" width="2" height="1"/><rect x="3" y="1" width="1" height="1"/><rect x="5" y="1" width="2" height="1"/><rect x="0" y="2" width="2" height="1"/><rect x="3" y="2" width="1" height="1"/><rect x="5" y="2" width="2" height="1"/><rect x="0" y="3" width="2" height="1"/><rect x="3" y="3" width="1" height="1"/><rect x="5" y="3" width="2" height="1"/><rect x="0" y="4" width="7" height="1"/><rect x="0" y="5" width="3" height="1"/><rect x="4" y="5" width="3" height="1"/><rect x="1" y="6" width="1" height="1"/><rect x="5" y="6" width="1" height="1"/></g><g id="c6f"><rect x="1" y="2" width="5" height="1"/><rect x="0" y="3" width="2" height="1"/><rect x="5" y="3" width="2" height="1"/><rect x="0" y="4" width="2" height="1"/><rect x="5" y="4" width="2" height="1"/><rect x="0" y="5" width="2" height="1"/><rect x="5" y="5" width="2" height="1"/><rect x="1" y="6" width="5" height="1"/></g><g id="c75"><rect x="0" y="2" width="2" height="1"/><rect x="5" y="2" width="2" height="1"/><rect x="0" y="3" width="2" height="1"/><rect x="5" y="3" width="2" height="1"/><rect x="0" y="4" width="2" height="1"/><rect x="5" y="4" width="2" height="1"/><rect x="0" y="5" width="2" height="1"/><rect x="5" y="5" width="2" height="1"/><rect x="1" y="6" width="6" height="1"/></g><g id="c6c"><rect x="2" y="0" width="3" height="1"/><rect x="3" y="1" width="2" height="1"/><rect x="3" y="2" width="2" height="1"/><rect x="3" y="3" width="2" height="1"/><rect x="3" y="4" width="2" height="1"/><rect x="3" y="5" width="2" height="1"/><rect x="1" y="6" width="6" height="1"/></g><g id="c64"><rect x="5" y="0" width="2" height="1"/><rect x="5" y="1" width="2" height="1"/><rect x="1" y="2" width="6" height="1"/><rect x="0" y="3" width="2" height="1"/><rect x="5" y="3" width="2" height="1"/><rect x="0" y="4" width="2" height="1"/><rect x="5" y="4" width="2" height="1"/><rect x="0" y="5" width="2" height="1"/><rect x="5" y="5" width="2" height="1"/><rect x="1" y="6" width="6" height="1"/></g><g id="c79"><rect x="0" y="2" width="2" height="1"/><rect x="5" y="2" width="2" height="1"/><rect x="0" y="3" width="2" height="1"/><rect x="5" y="3" width="2" height="1"/><rect x="0" y="4" width="2" height="1"/><rect x="5" y="4" width="2" height="1"/><rect x="1" y="5" width="6" height="1"/><rect x="5" y="6" width="2" height="1"/><rect x="1" y="7" width="5" height="1"/></g><g id="c69"><rect x="3" y="0" width="2" height="1"/><rect x="2" y="2" width="3" height="1"/><rect x="3" y="3" width="2" height="1"/><rect x="3" y="4" width="2" height="1"/><rect x="3" y="5" width="2" height="1"/><rect x="1" y="6" width="6" height="1"/></g><g id="c6b"><rect x="0" y="0" width="2" height="1"/><rect x="0" y="1" width="2" height="1"/><rect x="0" y="2" width="2" height="1"/><rect x="5" y="2" width="2" height="1"/><rect x="0" y="3" width="2" height="1"/><rect x="4" y="3" width="2" height="1"/><rect x="0" y="4" width="5" height="1"/><rect x="0" y="5" width="2" height="1"/><rect x="4" y="5" width="2" height="1"/><rect x="0" y="6" width="2" height="1"/><rect x="5" y="6" width="2" height="1"/></g><g id="c65"><rect x="1" y="2" width="5" height="1"/><rect x="0" y="3" width="2" height="1"/><rect x="5" y="3" width="2" height="1"/><rect x="0" y="4" width="7" height="1"/><rect x="0" y="5" width="2" height="1"/><rect x="1" y="6" width="5" height="1"/></g><g id="c74"><rect x="3" y="0" width="2" height="1"/><rect x="3" y="1" width="2" height="1"/><rect x="1" y="2" width="6" height="1"/><rect x="3" y="3" width="2" height="1"/><rect x="3" y="4" width="2" height="1"/><rect x="3" y="5" width="2" height="1"/><rect x="3" y="6" width="2" height="1"/></g><g id="c53"><rect x="1" y="0" width="5" height="1"/><rect x="0" y="1" width="2" height="1"/><rect x="5" y="1" width="2" height="1"/><rect x="0" y="2" width="2" height="1"/><rect x="1" y="3" width="5" height="1"/><rect x="5" y="4" width="2" height="1"/><rect x="0" y="5" width="2" height="1"/><rect x="5" y="5" width="2" height="1"/><rect x="1" y="6" width="5" height="1"/></g><g id="c41"><rect x="2" y="0" width="3" height="1"/><rect x="1" y="1" width="2" height="1"/><rect x="4" y="1" width="2" height="1"/><rect x="0" y="2" width="2" height="1"/><rect x="5" y="2" width="2" height="1"/><rect x="0" y="3" width="2" height="1"/><rect x="5" y="3" width="2" height="1"/><rect x="0" y="4" width="7" height="1"/><rect x="0" y="5" width="2" height="1"/><rect x="5" y="5" width="2" height="1"/><rect x="0" y="6" width="2" height="1"/><rect x="5" y="6" width="2" height="1"/></g><g id="c56"><rect x="0" y="0" width="2" height="1"/><rect x="5" y="0" width="2" height="1"/><rect x="0" y="1" width="2" height="1"/><rect x="5" y="1" width="2" height="1"/><rect x="0" y="2" width="2" height="1"/><rect x="5" y="2" width="2" height="1"/><rect x="0" y="3" width="3" height="1"/><rect x="4" y="3" width="3" height="1"/><rect x="1" y="4" width="5" height="1"/><rect x="2" y="5" width="3" height="1"/><rect x="3" y="6" width="1" height="1"/></g><g id="c45"><rect x="0" y="0" width="7" height="1"/><rect x="0" y="1" width="2" height="1"/><rect x="0" y="2" width="2" height="1"/><rect x="0" y="3" width="6" height="1"/><rect x="0" y="4" width="2" height="1"/><rect x="0" y="5" width="2" height="1"/><rect x="0" y="6" width="7" height="1"/></g><g id="c68"><rect x="0" y="0" width="2" height="1"/><rect x="0" y="1" width="2" height="1"/><rect x="0" y="2" width="6" height="1"/><rect x="0" y="3" width="2" height="1"/><rect x="5" y="3" width="2" height="1"/><rect x="0" y="4" width="2" height="1"/><rect x="5" y="4" width="2" height="1"/><rect x="0" y="5" width="2" height="1"/><rect x="5" y="5" width="2" height="1"/><rect x="0" y="6" width="2" height="1"/><rect x="5" y="6" width="2" height="1"/></g><g id="c67"><rect x="1" y="2" width="6" height="1"/><rect x="0" y="3" width="2" height="1"/><rect x="5" y="3" width="2" height="1"/><rect x="0" y="4" width="2" height="1"/><rect x="5" y="4" width="2" height="1"/><rect x="1" y="5" width="6" height="1"/><rect x="5" y="6" width="2" height="1"/><rect x="1" y="7" width="5" height="1"/></g><g id="c61"><rect x="1" y="2" width="5" height="1"/><rect x="5" y="3" width="2" height="1"/><rect x="1" y="4" width="6" height="1"/><rect x="0" y="5" width="2" height="1"/><rect x="5" y="5" width="2" height="1"/><rect x="1" y="6" width="6" height="1"/></g><g id="c6d"><rect x="0" y="2" width="6" height="1"/><rect x="0" y="3" width="1" height="1"/><rect x="2" y="3" width="2" height="1"/><rect x="5" y="3" width="2" height="1"/><rect x="0" y="4" width="1" height="1"/><rect x="2" y="4" width="2" height="1"/><rect x="5" y="4" width="2" height="1"/><rect x="0" y="5" width="1" height="1"/><rect x="2" y="5" width="2" height="1"/><rect x="5" y="5" width="2" height="1"/><rect x="0" y="6" width="1" height="1"/><rect x="2" y="6" width="2" height="1"/><rect x="5" y="6" width="2" height="1"/></g><g id="c3f"><rect x="1" y="0" width="5" height="1"/><rect x="0" y="1" width="7" height="1"/><rect x="0" y="2" width="2" height="1"/><rect x="5" y="2" width="2" height="1"/><rect x="4" y="3" width="2" height="1"/><rect x="2" y="4" width="3" height="1"/><rect x="2" y="6" width="3" height="1"/></g><g id="c59"><rect x="1" y="0" width="2" height="1"/><rect x="5" y="0" width="2" height="1"/><rect x="1" y="1" width="2" height="1"/><rect x="5" y="1" width="2" height="1"/><rect x="1" y="2" width="2" height="1"/><rect x="5" y="2" width="2" height="1"/><rect x="2" y="3" width="4" height="1"/><rect x="3" y="4" width="2" height="1"/><rect x="3" y="5" width="2" height="1"/><rect x="3" y="6" width="2" height="1"/></g><g id="c4e"><rect x="0" y="0" width="2" height="1"/><rect x="5" y="0" width="2" height="1"/><rect x="0" y="1" width="3" height="1"/><rect x="5" y="1" width="2" height="1"/><rect x="0" y="2" width="4" height="1"/><rect x="5" y="2" width="2" height="1"/><rect x="0" y="3" width="2" height="1"/><rect x="3" y="3" width="4" height="1"/><rect x="0" y="4" width="2" height="1"/><rect x="4" y="4" width="3" height="1"/><rect x="0" y="5" width="2" height="1"/><rect x="5" y="5" width="2" height="1"/><rect x="0" y="6" width="2" height="1"/><rect x="5" y="6" width="2" height="1"/></g><g id="c4f"><rect x="1" y="0" width="5" height="1"/><rect x="0" y="1" width="2" height="1"/><rect x="5" y="1" width="2" height="1"/><rect x="0" y="2" width="2" height="1"/><rect x="5" y="2" width="2" height="1"/><rect x="0" y="3" width="2" height="1"/><rect x="5" y="3" width="2" height="1"/><rect x="0" y="4" width="2" height="1"/><rect x="5" y="4" width="2" height="1"/><rect x="0" y="5" width="2" height="1"/><rect x="5" y="5" width="2" height="1"/><rect x="1" y="6" width="5" height="1"/></g></defs><rect x="0" y="0" width="640" height="160" fill="#9bbc0f"/><rect x="8" y="0" width="624" height="8" fill="#0f380f"/><rect x="8" y="152" width="624" height="8" fill="#0f380f"/><rect x="0" y="8" width="8" height="144" fill="#0f380f"/><rect x="632" y="8" width="8" height="144" fill="#0f380f"/><rect x="4" y="4" width="4" height="4" fill="#0f380f"/><rect x="632" y="4" width="4" height="4" fill="#0f380f"/><rect x="4" y="152" width="4" height="4" fill="#0f380f"/><rect x="632" y="152" width="4" height="4" fill="#0f380f"/><rect x="16" y="12" width="608" height="4" fill="#0f380f"/><rect x="16" y="144" width="608" height="4" fill="#0f380f"/><rect x="12" y="16" width="4" height="128" fill="#0f380f"/><rect x="624" y="16" width="4" height="128" fill="#0f380f"/><g transform="translate(32,36) scale(3)" fill="#0f380f"><use href="#c57" xlink:href="#c57" x="0"/><use href="#c6f" xlink:href="#c6f" x="8"/><use href="#c75" xlink:href="#c75" x="16"/><use href="#c6c" xlink:href="#c6c" x="24"/><use href="#c64" xlink:href="#c64" x="32"/><use href="#c79" xlink:href="#c79" x="48"/><use href="#c6f" xlink:href="#c6f" x="56"/><use href="#c75" xlink:href="#c75" x="64"/><use href="#c6c" xlink:href="#c6c" x="80"/><use href="#c69" xlink:href="#c69" x="88"/><use href="#c6b" xlink:href="#c6b" x="96"/><use href="#c65" xlink:href="#c65" x="104"/><use href="#c74" xlink:href="#c74" x="120"/><use href="#c6f" xlink:href="#c6f" x="128"/></g><g transform="translate(32,84) scale(3)" fill="#0f380f"><use href="#c53" xlink:href="#c53" x="0"/><use href="#c41" xlink:href="#c41" x="8"/><use href="#c56" xlink:href="#c56" x="16"/><use href="#c45" xlink:href="#c45" x="24"/><use href="#c74" xlink:href="#c74" x="40"/><use href="#c68" xlink:href="#c68" x="48"/><use href="#c65" xlink:href="#c65" x="56"/><use href="#c67" xlink:href="#c67" x="72"/><use href="#c61" xlink:href="#c61" x="80"/><use href="#c6d" xlink:href="#c6d" x="88"/><use href="#c65" xlink:href="#c65" x="96"/><use href="#c3f" xlink:href="#c3f" x="104"/></g><rect x="448" y="12" width="176" height="136" fill="#9bbc0f"/><rect x="456" y="12" width="160" height="8" fill="#0f380f"/><rect x="456" y="140" width="160" height="8" fill="#0f380f"/><rect x="448" y="20" width="8" height="120" fill="#0f380f"/><rect x="616" y="20" width="8" height="120" fill="#0f380f"/><rect x="452" y="16" width="4" height="4" fill="#0f380f"/><rect x="616" y="16" width="4" height="4" fill="#0f380f"/><rect x="452" y="140" width="4" height="4" fill="#0f380f"/><rect x="616" y="140" width="4" height="4" fill="#0f380f"/><rect x="464" y="24" width="144" height="4" fill="#0f380f"/><rect x="464" y="132" width="144" height="4" fill="#0f380f"/><rect x="460" y="28" width="4" height="104" fill="#0f380f"/><rect x="608" y="28" width="4" height="104" fill="#0f380f"/><g transform="translate(504,36) scale(4)" fill="#0f380f"><use href="#c59" xlink:href="#c59" x="0"/><use href="#c45" xlink:href="#c45" x="8"/><use href="#c53" xlink:href="#c53" x="16"/></g><g transform="translate(504,92) scale(4)" fill="#0f380f"><use href="#c4e" xlink:href="#c4e" x="0"/><use href="#c4f" xlink:href="#c4f" x="8"/></g><g transform="translate(472,40) scale(4)" fill="#0f380f" class="blink"><rect x="0" y="0" width="1" height="1"/><rect x="0" y="1" width="2" height="1"/><rect x="0" y="2" width="3" height="1"/><rect x="0" y="3" width="4" height="1"/><rect x="0" y="4" width="3" height="1"/><rect x="0" y="5" width="2" height="1"/><rect x="0" y="6" width="1" height="1"/></g></svg>